<svg width="12" height="10" viewBox="0 0 12 10" fill="none" xmlns="http://www.w3.org/2000/svg">
<path d="M12 4.99979C12 5.1324 11.9473 5.25958 11.8535 5.35334C11.7598 5.44711 11.6326 5.49979 11.5 5.49979H1.70687L5.35375 9.14604C5.4002 9.1925 5.43705 9.24765 5.46219 9.30834C5.48733 9.36904 5.50027 9.43409 5.50027 9.49979C5.50027 9.56549 5.48733 9.63054 5.46219 9.69124C5.43705 9.75194 5.4002 9.80709 5.35375 9.85354C5.30729 9.9 5.25214 9.93684 5.19144 9.96199C5.13075 9.98713 5.06569 10.0001 5 10.0001C4.9343 10.0001 4.86925 9.98713 4.80855 9.96199C4.74785 9.93684 4.6927 9.9 4.64625 9.85354L0.146247 5.35354C0.0997583 5.3071 0.0628789 5.25196 0.0377167 5.19126C0.0125546 5.13056 -0.000396729 5.0655 -0.000396729 4.99979C-0.000396729 4.93408 0.0125546 4.86902 0.0377167 4.80832C0.0628789 4.74762 0.0997583 4.69248 0.146247 4.64604L4.64625 0.14604C4.74007 0.0522194 4.86731 -0.000488282 5 -0.000488281C5.13268 -0.00048828 5.25993 0.0522194 5.35375 0.14604C5.44757 0.23986 5.50027 0.367108 5.50027 0.49979C5.50027 0.632472 5.44757 0.759719 5.35375 0.85354L1.70687 4.49979H11.5C11.6326 4.49979 11.7598 4.55247 11.8535 4.64624C11.9473 4.74 12 4.86718 12 4.99979Z" fill="white"/>
</svg>
