<svg width="100" height="28" viewBox="0 0 100 28" fill="none" xmlns="http://www.w3.org/2000/svg">
<g clip-path="url(#clip0_1214_319)">
<path d="M17.8922 21.5136V0.307617H21.5072V9.1382L21.0105 8.61386C21.3601 7.71242 21.9304 7.35654 22.7214 6.8966C23.5309 6.41829 24.4692 6.17912 25.5362 6.17912C26.64 6.17912 27.615 6.41829 28.4613 6.8966C28.8676 7.12137 29.1844 7.35553 29.4778 7.61229C30.1743 8.22186 30.7617 8.98109 30.9933 9.87722C31.1265 10.3927 31.1933 10.9466 31.1933 11.539V21.5136H27.5783V12.3945C27.5783 11.7322 27.4495 11.1619 27.1919 10.6835C26.9344 10.2052 26.5756 9.83728 26.1157 9.57971C25.6742 9.30377 25.1498 9.16577 24.5427 9.16577C23.9541 9.16577 23.4297 9.30377 22.9698 9.57971C22.5099 9.83728 22.1511 10.2052 21.8936 10.6835C21.636 11.1619 21.5072 11.7322 21.5072 12.3945V21.5136H17.8922Z" fill="white"/>
<path d="M77.0529 21.5285C75.5077 21.5285 74.1554 21.179 72.9963 20.4799C71.8376 19.7808 70.936 18.8334 70.292 17.6376C69.6483 16.4417 69.3262 15.4333 69.3262 13.9799C69.3262 12.4714 69.6483 11.1376 70.292 9.9786C70.9545 8.80121 71.8468 7.87216 72.9689 7.19146C74.1096 6.51078 75.3788 6.17041 76.7769 6.17041C77.9545 6.17041 78.9846 6.36358 79.8677 6.74992C80.7693 7.13626 81.5326 7.6698 82.1582 8.35047C82.7837 9.03115 83.2619 9.81303 83.5933 10.6961C83.9243 11.5607 84.1111 12.4624 84.1111 13.4742C84.1111 13.5487 84.1111 13.5671 84.1111 13.752C84.1111 13.9187 84.1111 14.4187 84.1111 14.7124H72.3065V11.9529H81.8548L80.1437 13.2499C80.3093 12.4036 80.2634 11.6493 80.0059 10.987C79.7665 10.3247 79.3619 9.80041 78.7914 9.41407C78.2397 9.02773 77.568 8.83456 76.7769 8.83456C76.0228 8.83456 75.3514 9.02773 74.7625 9.41407C74.1739 9.78201 73.7231 10.3339 73.4105 11.0698C73.116 11.7873 73.0056 12.6611 73.0794 13.6914C73.0056 14.6112 73.1253 15.4299 73.4379 16.1474C73.7693 16.8465 74.2474 17.3892 74.8729 17.7755C75.5169 18.1619 76.2526 18.355 77.0806 18.355C77.9083 18.355 78.6077 18.1803 79.1779 17.8307C79.7665 17.4812 80.2265 17.012 80.5576 16.4233L83.4828 17.8583C83.1883 18.5758 82.7286 19.2105 82.1031 19.7624C81.4776 20.3143 80.7323 20.7467 79.8677 21.0594C79.0216 21.3721 78.0834 21.5285 77.0529 21.5285Z" fill="white"/>
<path d="M58.248 27.5709C57.1259 27.5709 56.0865 27.3869 55.1296 27.019C54.1729 26.651 53.3453 26.1359 52.6462 25.4736C51.9656 24.8297 51.4686 24.0662 51.156 23.1832L54.5225 21.9138C54.7434 22.6129 55.1757 23.174 55.8197 23.5971C56.4819 24.0386 57.2914 24.2594 58.248 24.2594C58.984 24.2594 59.6277 24.1214 60.1797 23.8455C60.7499 23.5695 61.1914 23.1648 61.5043 22.6313C61.8169 22.1162 61.9732 21.4906 61.9732 20.7548V17.3329L62.6634 18.1608C62.1483 19.0622 61.4582 19.7429 60.5936 20.2029C59.7289 20.6628 58.7446 20.8927 57.6409 20.8927C56.2428 20.8927 54.9917 20.5708 53.888 19.9269C52.784 19.283 51.9194 18.3999 51.2939 17.2777C50.6683 16.1555 50.3557 14.8953 50.3557 13.4971C50.3557 12.0806 50.6683 10.8204 51.2939 9.71655C51.9194 8.61274 52.7748 7.74806 53.8603 7.12258C54.9459 6.47868 56.1785 6.15674 57.5582 6.15674C58.6803 6.15674 59.6646 6.39588 60.5108 6.87422C61.3754 7.33412 62.0929 8.00563 62.6634 8.88868L62.1665 9.79932V6.17169H65.5883V20.7548C65.5883 22.061 65.2665 23.2292 64.6225 24.2594C63.9969 25.2896 63.1323 26.0991 62.0286 26.6878C60.9431 27.2765 59.6831 27.5709 58.248 27.5709ZM58.0825 17.5537C58.8551 17.5537 59.5265 17.3881 60.0969 17.057C60.6856 16.7074 61.1456 16.2291 61.4766 15.622C61.8077 15.0149 61.9732 14.3158 61.9732 13.5247C61.9732 12.7521 61.7985 12.0622 61.4489 11.4551C61.1179 10.8296 60.6579 10.3421 60.0693 9.99249C59.4991 9.64295 58.8366 9.46818 58.0825 9.46818C57.328 9.46818 56.6474 9.64295 56.0403 9.99249C55.4332 10.3421 54.9548 10.8296 54.6052 11.4551C54.2742 12.0622 54.1086 12.7521 54.1086 13.5247C54.1086 14.2974 54.2742 14.9873 54.6052 15.5944C54.9548 16.2015 55.424 16.6798 56.0126 17.0294C56.6197 17.3789 57.3099 17.5537 58.0825 17.5537Z" fill="white"/>
<path d="M36.3252 27.5183C35.9206 27.5183 35.5249 27.4815 35.1387 27.408C34.7523 27.3528 34.4027 27.2516 34.0901 27.1044V24.0689C34.3292 24.1241 34.6144 24.1793 34.9455 24.2345C35.295 24.2897 35.6169 24.3173 35.9113 24.3173C36.739 24.3173 37.3372 24.1241 37.7049 23.7378C38.0913 23.3514 38.4317 22.6233 38.7261 21.9978L39.7193 19.6798L39.6643 22.7153L33.1243 6.18555H37.015L41.596 18.3828H40.2163L44.7695 6.18555H48.688L42.148 22.7153C41.7615 23.6903 41.2923 24.7404 40.7406 25.4211C40.1886 26.1018 39.5446 26.6169 38.8089 26.9664C38.0913 27.3344 37.2633 27.5183 36.3252 27.5183Z" fill="white"/>
<path fill-rule="evenodd" clip-rule="evenodd" d="M5.54269 13.7856L14.3167 8.64408L12.884 6.19922L0 13.7492L12.868 21.5187L14.3327 19.0929L5.54269 13.7856Z" fill="white"/>
<path fill-rule="evenodd" clip-rule="evenodd" d="M94.4572 13.7856L85.6834 8.64408L87.116 6.19922L100 13.7492L87.132 21.5187L85.6674 19.0929L94.4572 13.7856Z" fill="white"/>
</g>
<defs>
<clipPath id="clip0_1214_319">
<rect width="100" height="27.3846" fill="white" transform="translate(0 0.307617)"/>
</clipPath>
</defs>
</svg>
